<svg xmlns="http://www.w3.org/2000/svg" width="351.507" height="217.742" viewBox="0 0 351.507 217.742">
  <path id="Ellipse_4" data-name="Ellipse 4" d="M802.46,1027.752c40.723-3.2,77.672-18.868,112.768-11.913,33.789,5.238,65.725,33.1,66.245,77.315,1.958,43.589-30.989,86.965-69.072,110.978-39.018,25.168-83.171,30.973-125.224,26.124-42.78-5.467-81.353-15.21-109.784-30.984-28.308-15.293-46.975-47.56-47.343-92.648-.059-21.526,5.156-41.72,14.991-55.27,9.771-13.859,24.162-21.074,40.928-23.856,34.22-5.1,75.77,5.294,116.491.254Z" transform="translate(-630.049 -1014.078)" fill="#432670"/>
</svg>
